<svg id="Layer_1" height="512" viewBox="0 0 512 512" width="512" xmlns="http://www.w3.org/2000/svg" data-name="Layer 1"><path d="m110 211v245a40.036 40.036 0 0 0 40.04 40h211.92a40.036 40.036 0 0 0 40.04-40v-245z" fill="#908c85"/><path d="m372.34 49.51-36.89 55.19 58.9 7.44z" fill="#e1b7a3"/><path d="m276.81 132.735-4.62-26.735h-32.58l-4.62 26.735c-2.1 12.1-3.66 24.343-4.67 36.562a103.515 103.515 0 0 0 51.16-.031c-1.01-12.22-2.57-24.431-4.67-36.531z" fill="#b0b5ca"/><path d="m394.35 112.14-12.53 98.95h-29.94l13.02-102.67z" fill="#b75a6e"/><path d="m364.9 108.42-13.02 102.67h-29.9l13.47-106.39z" fill="#e87187"/><path d="m281.48 169.36a412.216 412.216 0 0 1 1.36 41.73h-53.88a409.32 409.32 0 0 1 1.36-41.73 103.527 103.527 0 0 0 51.16 0z" fill="#4a5160"/><path d="m177.04 16 17.25 195.09h-63l-16.77-189.56z" fill="#a0eaea"/><path d="m270.6 39.2a44.366 44.366 0 0 1 8.35 50.2l-8.05 16.84v.01h-29.41v-.01l-8.26-16.85a44.381 44.381 0 0 1 8.7-51.12l14.12-13.93z" fill="#7d8696"/><path d="m140 456v-245h-30v245a40.036 40.036 0 0 0 40.04 40h30a40.036 40.036 0 0 1 -40.04-40z" fill="#605d58"/><path d="m110.04 353.79h291.92v53.75h-291.92z" fill="#6b655f"/><path d="m110 354h30v54h-30z" fill="#44413e"/><g id="_Path_3" data-name=" Path 3"><path d="m133.991 239.637a6 6 0 0 1 -6-6v-1.946a6 6 0 1 1 12 0v1.946a6 6 0 0 1 -6 6z" fill="#f4f8fc"/></g><g id="_Path_3-2" data-name=" Path 3-2"><path d="m133.991 325.425a6 6 0 0 1 -6-6v-66.286a6 6 0 1 1 12 0v66.286a6 6 0 0 1 -6 6z" fill="#f4f8fc"/></g><g fill="#7bb7b6"><path d="m129.285 179.475 11.376-1.006a6 6 0 1 0 -1.057-11.953l-11.375 1a6.044 6.044 0 0 0 -.782.128l1.046 11.825c.087 0 .169.025.257.025.177.006.35-.003.535-.019z"/><path d="m125.868 140.842 18.5-1.636a6 6 0 0 0 -1.056-11.953l-18.5 1.636a5.891 5.891 0 0 0 -.783.127l1.046 11.825c.087 0 .17.025.258.025.177 0 .355-.008.535-.024z"/><path d="m122.342 100.962 11.377-1.005a6 6 0 0 0 -1.057-11.957l-11.377 1.006a6.1 6.1 0 0 0 -.784.128l1.046 11.825c.088 0 .171.024.26.024.176.003.355-.004.535-.021z"/><path d="m118.926 62.33 18.495-1.636a6 6 0 1 0 -1.057-11.953l-18.5 1.635a5.965 5.965 0 0 0 -.786.129l1.046 11.824c.089 0 .173.025.262.025.181 0 .36-.008.54-.024z"/></g></svg>